<svg width="311" height="76" viewBox="0 0 311 76" fill="none" xmlns="http://www.w3.org/2000/svg">
<path d="M97.3085 54L113.696 10.3822H121.797L138.185 54H131.393L127.716 43.9679H107.777L104.1 54H97.3085ZM109.584 39.0453H125.909L117.934 17.1741H117.56L109.584 39.0453ZM142.998 54V21.5982H149.291V54H142.998ZM146.113 15.9902C144.119 15.9902 142.375 14.3701 142.375 12.2515C142.375 10.1953 144.119 8.51285 146.113 8.51285C148.107 8.51285 149.852 10.1953 149.852 12.2515C149.852 14.3701 148.107 15.9902 146.113 15.9902ZM156.263 54V21.5982H162.557V29.0755H162.744C163.678 25.2746 166.731 21.2243 172.651 21.2243C173.461 21.2243 174.333 21.2866 175.081 21.5359V26.8323C174.271 26.7077 173.523 26.6454 172.713 26.6454C166.669 26.6454 162.557 30.571 162.557 37.7991V54H156.263ZM179.873 54V10.3822H186.167V54H179.873ZM202.423 54.6231C196.379 54.6231 191.581 51.9437 191.581 45.5257C191.581 39.2946 196.13 36.7398 201.925 36.0544L209.963 35.1197C212.954 34.7459 213.951 34.1851 213.951 33.1881V32.3157C213.951 27.1439 211.271 25.773 206.723 25.773C202.049 25.773 199.432 27.1439 199.432 31.2564V32.0042H193.388V30.6956C193.388 24.2153 197.937 20.9751 206.847 20.9751C216.007 20.9751 220.244 24.4022 220.244 32.2534V54H214.325V48.7659H214.075C213.452 50.0121 210.399 54.6231 202.423 54.6231ZM203.981 49.7005C210.835 49.7005 213.951 45.4634 213.951 41.9739V38.4222C213.514 39.1076 212.704 39.5438 209.527 39.9177L203.42 40.7277C199.37 41.2262 197.874 42.6594 197.874 45.2141C197.874 48.2674 200.055 49.7005 203.981 49.7005ZM226.389 60.7296C231.748 61.4773 233.867 59.3588 235.113 56.3055C235.798 54.5608 235.798 53.5015 235.238 52.006L223.087 21.5982H229.567L238.852 46.3357L248.198 21.5982H254.679L240.97 55.8693C237.606 64.219 233.618 66.9607 226.389 66.1507V60.7296ZM271.42 54.6231C262.696 54.6231 255.718 49.5136 255.718 37.8614C255.718 25.96 262.821 20.9751 271.171 20.9751C279.52 20.9751 285.939 26.0223 285.939 37.3629C285.939 38.4845 285.876 39.1076 285.752 39.7931H261.762C262.26 46.585 265.687 49.7005 271.482 49.7005C275.47 49.7005 278.523 48.2674 279.894 44.4664H285.502C283.571 51.6945 278.025 54.6231 271.42 54.6231ZM261.824 35.0574H279.957C279.832 29.3871 276.654 25.8977 271.108 25.8977C265.937 25.8977 262.385 28.8886 261.824 35.0574ZM291.352 54V21.5982H297.645V29.0755H297.832C298.767 25.2746 301.82 21.2243 307.74 21.2243C308.55 21.2243 309.422 21.2866 310.17 21.5359V26.8323C309.36 26.7077 308.612 26.6454 307.802 26.6454C301.758 26.6454 297.645 30.571 297.645 37.7991V54H291.352Z" fill="white"/>
<path d="M43.7183 37.0824C39.4423 38.9076 36.244 38.7685 32.2635 37.0694L2.45323 24.3674C1.1713 23.8199 0.210916 22.6509 0.150078 21.4863C0.0892408 20.3217 0.927934 18.8617 2.16641 18.3402L34.8187 4.5866C37.0001 3.66969 39.4858 3.9 41.576 4.7778L73.3679 18.1403C74.6932 18.6965 75.6623 19.4787 75.8665 20.6998C76.0882 22.0078 75.3624 23.5896 73.9588 24.1893L43.714 37.0868L43.7183 37.0824Z" fill="white"/>
<path d="M73.9415 35.2831C75.1843 35.7872 76.0578 37.2343 75.9969 38.4249C75.923 39.8764 74.8845 40.8063 73.394 41.4364L42.3278 54.612C39.2816 55.9027 36.4135 55.8635 33.4368 54.5816L1.86224 40.9975C1.06266 40.6542 0.315239 39.4635 0.1588 38.7856C-0.0150207 38.0208 0.471684 36.0784 1.22346 35.7698L9.32353 32.4281L32.9979 42.4185C36.2484 43.7917 39.2164 44.0263 42.4842 42.6401L66.7236 32.3542L73.9415 35.2788V35.2831Z" fill="white"/>
<path d="M73.0855 51.2834C74.2588 51.7006 75.4625 52.6349 75.7797 53.4344C76.1708 54.4165 75.9622 56.7501 74.8802 57.2064L43.084 70.6166C39.8726 71.9725 36.5657 72.1984 33.2935 70.8165L1.84491 57.5236C0.845436 57.1021 0.102359 55.7941 0.00675753 54.8424C-0.0844985 53.9689 0.762868 52.2481 1.67977 51.9005L9.30184 49.0063L32.9111 59.0489C36.6439 60.635 39.4989 60.5654 43.2187 58.9924L66.7366 49.0237L73.0898 51.2964L73.0855 51.2834Z" fill="white"/>
</svg>
